/* XPM */
static char *dummy[]={
"13 21 6 1",
". c None",
"b c #000000",
"d c #523ab5",
"# c #d5c09e",
"c c #eb2d1d",
"a c #fbfbfb",
"....#####....",
"....#ab##....",
"....######...",
"....##bbb....",
"....#####....",
"......#......",
"ccccccccccccc",
"#ccccccccccc#",
"##ccccccccc##",
"##.ccccccc.##",
"##.ccccccc.##",
"##.ccdddcc.##",
"#..ddddddd..#",
"#..ddddddd..#",
"##.ddd.ddd.##",
"...ddd.ddd...",
"...ddd.ddd...",
"...###.###...",
"...##b.b##...",
"..bbbb.bbbb..",
"..bbbb.bbbb.."};
